<?xml version="1.0" encoding="UTF-8"?>
<!DOCTYPE svg PUBLIC "-//W3C//DTD SVG 1.1//EN" "http://www.w3.org/Graphics/SVG/1.1/DTD/svg11.dtd">
<svg xmlns="http://www.w3.org/2000/svg" version="1.1" width="854px" height="340px" style="shape-rendering:geometricPrecision; text-rendering:geometricPrecision; image-rendering:optimizeQuality; fill-rule:evenodd; clip-rule:evenodd" xmlns:xlink="http://www.w3.org/1999/xlink">
<g><path style="opacity:0.98" fill="#f11616" d="M -0.5,-0.5 C 224.167,-0.5 448.833,-0.5 673.5,-0.5C 673.5,112.833 673.5,226.167 673.5,339.5C 448.833,339.5 224.167,339.5 -0.5,339.5C -0.5,226.167 -0.5,112.833 -0.5,-0.5 Z"/></g>
<g><path style="opacity:1" fill="#37497c" d="M 20.5,19.5 C 231.167,19.5 441.833,19.5 652.5,19.5C 652.5,119.167 652.5,218.833 652.5,318.5C 441.833,318.5 231.167,318.5 20.5,318.5C 20.5,218.833 20.5,119.167 20.5,19.5 Z"/></g>
<g><path style="opacity:1" fill="#fdfd03" d="M 128.5,40.5 C 155.199,38.2912 181.199,41.4579 206.5,50C 231.002,60.8315 246.168,79.3315 252,105.5C 256.373,127.891 255.04,149.891 248,171.5C 237.766,195.402 220.266,211.236 195.5,219C 162.775,227.076 129.942,227.576 97,220.5C 96.5,161.834 96.3333,103.168 96.5,44.5C 107.295,43.099 117.962,41.7656 128.5,40.5 Z"/></g>
<g><path style="opacity:1" fill="#fdfd03" d="M 482.5,40.5 C 504.481,39.0889 526.147,40.9222 547.5,46C 578.78,56.0148 592.28,77.5148 588,110.5C 583.455,137.048 567.955,153.214 541.5,159C 524.973,162.051 508.307,163.218 491.5,162.5C 491.5,182.5 491.5,202.5 491.5,222.5C 477.833,222.5 464.167,222.5 450.5,222.5C 450.5,163.167 450.5,103.833 450.5,44.5C 461.317,43.2379 471.984,41.9045 482.5,40.5 Z"/></g>
<g><path style="opacity:1" fill="#fcfc05" d="M 355.5,42.5 C 369.167,42.5 382.833,42.5 396.5,42.5C 396.667,85.8346 396.5,129.168 396,172.5C 393.994,201.5 378.828,219 350.5,225C 328.273,229.068 306.94,226.401 286.5,217C 283.764,215.638 281.431,213.804 279.5,211.5C 283.903,201.125 288.403,190.792 293,180.5C 308.186,191.205 324.686,194.038 342.5,189C 351.167,183.737 355.333,175.904 355,165.5C 355.5,124.501 355.667,83.5014 355.5,42.5 Z"/></g>
<g><path style="opacity:0.796" fill="#ec1819" d="M 772.5,74.5 C 775.5,74.5 778.5,74.5 781.5,74.5C 781.333,128.168 781.5,181.834 782,235.5C 783.339,238.094 785.506,239.594 788.5,240C 798.161,240.5 807.828,240.666 817.5,240.5C 817.5,244.5 817.5,248.5 817.5,252.5C 786.167,252.5 754.833,252.5 723.5,252.5C 723.5,248.5 723.5,244.5 723.5,240.5C 732.173,240.666 740.84,240.5 749.5,240C 753.02,239.496 755.52,237.663 757,234.5C 757.667,192.167 757.667,149.833 757,107.5C 755.786,105.951 754.286,104.785 752.5,104C 741.505,103.5 730.505,103.333 719.5,103.5C 719.5,99.5 719.5,95.5 719.5,91.5C 738.86,90.5872 756.526,84.9206 772.5,74.5 Z"/></g>
<g><path style="opacity:1" fill="#37497c" d="M 137.5,75.5 C 152.8,74.3757 167.8,75.8757 182.5,80C 198.632,86.8189 208.132,98.9855 211,116.5C 216.717,170.949 192.217,195.283 137.5,189.5C 137.5,151.5 137.5,113.5 137.5,75.5 Z"/></g>
<g><path style="opacity:1" fill="#37497c" d="M 491.5,75.5 C 499.507,75.3336 507.507,75.5003 515.5,76C 540.071,76.5587 549.571,88.7253 544,112.5C 540.824,119.669 535.324,123.836 527.5,125C 515.603,127.163 503.603,127.996 491.5,127.5C 491.5,110.167 491.5,92.8333 491.5,75.5 Z"/></g>
<g><path style="opacity:1" fill="#3b487b" d="M 789.5,242.5 C 797.65,243.493 805.983,243.826 814.5,243.5C 814.5,245.5 814.5,247.5 814.5,249.5C 785.167,249.5 755.833,249.5 726.5,249.5C 726.5,247.167 726.5,244.833 726.5,242.5C 734.84,242.666 743.173,242.5 751.5,242C 756.513,240.822 759.346,237.655 760,232.5C 760.667,190.833 760.667,149.167 760,107.5C 758.101,104.137 755.268,102.137 751.5,101.5C 742.014,100.506 732.348,100.173 722.5,100.5C 722.5,98.5 722.5,96.5 722.5,94.5C 723.791,94.7373 724.791,94.404 725.5,93.5C 742.821,91.6715 758.821,86.1715 773.5,77C 775.473,76.5045 777.473,76.3379 779.5,76.5C 779.333,130.168 779.5,183.834 780,237.5C 782.552,240.359 785.719,242.026 789.5,242.5 Z"/></g>
<g><path style="opacity:1" fill="#8e324e" d="M 725.5,93.5 C 724.791,94.404 723.791,94.7373 722.5,94.5C 722.5,96.5 722.5,98.5 722.5,100.5C 732.348,100.173 742.014,100.506 751.5,101.5C 741.5,101.5 731.5,101.5 721.5,101.5C 721.5,98.8333 721.5,96.1667 721.5,93.5C 722.833,93.5 724.167,93.5 725.5,93.5 Z"/></g>
<g><path style="opacity:1" fill="#f5f611" d="M 236.5,238.5 C 244.696,238.529 247.863,242.529 246,250.5C 241.333,255.833 236.667,255.833 232,250.5C 230.309,245.131 231.809,241.131 236.5,238.5 Z"/></g>
<g><path style="opacity:1" fill="#f2f315" d="M 369.5,238.5 C 376.514,239.005 379.68,242.672 379,249.5C 376.774,253.861 373.274,255.361 368.5,254C 364.139,251.774 362.639,248.274 364,243.5C 365.704,241.627 367.537,239.96 369.5,238.5 Z"/></g>
<g><path style="opacity:1" fill="#fefe00" d="M 189.5,256.5 C 188.515,260.634 188.182,264.968 188.5,269.5C 196.5,269.5 204.5,269.5 212.5,269.5C 212.5,273.167 212.5,276.833 212.5,280.5C 204.5,280.5 196.5,280.5 188.5,280.5C 188.5,288.833 188.5,297.167 188.5,305.5C 184.167,305.5 179.833,305.5 175.5,305.5C 175.5,285.5 175.5,265.5 175.5,245.5C 188.833,245.5 202.167,245.5 215.5,245.5C 215.5,249.167 215.5,252.833 215.5,256.5C 206.833,256.5 198.167,256.5 189.5,256.5 Z"/></g>
<g><path style="opacity:1" fill="#fafa09" d="M 323.5,246.5 C 325.833,246.5 328.167,246.5 330.5,246.5C 330.5,250.833 330.5,255.167 330.5,259.5C 335.833,259.5 341.167,259.5 346.5,259.5C 346.5,263.167 346.5,266.833 346.5,270.5C 341.167,270.5 335.833,270.5 330.5,270.5C 330.071,277.947 330.571,285.281 332,292.5C 333.333,294.833 335.333,295.833 338,295.5C 340.817,294.969 343.65,294.636 346.5,294.5C 347.207,297.786 347.54,301.119 347.5,304.5C 339.748,307.287 332.081,307.12 324.5,304C 320.675,301.512 318.508,298.012 318,293.5C 317.5,278.17 317.333,262.837 317.5,247.5C 319.735,247.795 321.735,247.461 323.5,246.5 Z"/></g>
<g><path style="opacity:1" fill="#663b62" d="M 789.5,242.5 C 798.167,242.5 806.833,242.5 815.5,242.5C 815.5,245.167 815.5,247.833 815.5,250.5C 785.662,250.831 755.995,250.498 726.5,249.5C 755.833,249.5 785.167,249.5 814.5,249.5C 814.5,247.5 814.5,245.5 814.5,243.5C 805.983,243.826 797.65,243.493 789.5,242.5 Z"/></g>
<g><path style="opacity:1" fill="#f8f80d" d="M 280.5,258.5 C 286.659,258.034 292.659,258.701 298.5,260.5C 299.298,264.333 298.632,267.999 296.5,271.5C 281.748,267.41 275.581,273.077 278,288.5C 279.992,293.336 283.659,295.669 289,295.5C 292.289,295.386 295.456,294.719 298.5,293.5C 300.878,297.499 300.878,301.332 298.5,305C 271.129,309.722 260.296,298.555 266,271.5C 269.138,265.191 273.971,260.858 280.5,258.5 Z"/></g>
<g><path style="opacity:1" fill="#f8f90b" d="M 412.5,258.5 C 436.76,258.945 445.593,270.945 439,294.5C 432.967,304.426 424.134,308.26 412.5,306C 396.768,297.469 392.601,284.969 400,268.5C 403.489,264.162 407.656,260.829 412.5,258.5 Z"/></g>
<g><path style="opacity:1" fill="#f5f610" d="M 469.5,258.5 C 475.909,258.183 482.243,258.683 488.5,260C 494.606,262.443 498.106,266.943 499,273.5C 499.5,284.161 499.667,294.828 499.5,305.5C 494.833,305.5 490.167,305.5 485.5,305.5C 485.667,294.828 485.5,284.161 485,273.5C 481.735,269.651 477.735,268.651 473,270.5C 472.5,282.162 472.333,293.829 472.5,305.5C 468.167,305.5 463.833,305.5 459.5,305.5C 459.333,290.83 459.5,276.163 460,261.5C 463.188,260.233 466.355,259.233 469.5,258.5 Z"/></g>
<g><path style="opacity:1" fill="#fcfd02" d="M 232.5,259.5 C 236.833,259.5 241.167,259.5 245.5,259.5C 245.5,274.833 245.5,290.167 245.5,305.5C 241.167,305.5 236.833,305.5 232.5,305.5C 232.5,290.167 232.5,274.833 232.5,259.5 Z"/></g>
<g><path style="opacity:1" fill="#eff01a" d="M 364.5,259.5 C 369.167,259.5 373.833,259.5 378.5,259.5C 378.5,274.833 378.5,290.167 378.5,305.5C 373.833,305.5 369.167,305.5 364.5,305.5C 364.5,290.167 364.5,274.833 364.5,259.5 Z"/></g>
<g><path style="opacity:1" fill="#6a775d" d="M 189.5,256.5 C 189.5,260.5 189.5,264.5 189.5,268.5C 197.352,268.175 205.018,268.508 212.5,269.5C 204.5,269.5 196.5,269.5 188.5,269.5C 188.182,264.968 188.515,260.634 189.5,256.5 Z"/></g>
<g><path style="opacity:1" fill="#394a7c" d="M 416.5,269.5 C 421.382,269.175 424.882,271.175 427,275.5C 427.839,280.921 427.506,286.254 426,291.5C 419.571,297.475 414.571,296.475 411,288.5C 410.333,284.167 410.333,279.833 411,275.5C 412.36,272.977 414.193,270.977 416.5,269.5 Z"/></g>
<g><path style="opacity:1" fill="#72395c" d="M 20.5,19.5 C 20.5,119.167 20.5,218.833 20.5,318.5C 231.167,318.5 441.833,318.5 652.5,318.5C 441.667,319.5 230.667,319.833 19.5,319.5C 19.1672,219.332 19.5006,119.332 20.5,19.5 Z"/></g>
</svg>
